<svg xmlns="http://www.w3.org/2000/svg" width="16" height="14" viewBox="0 0 16 14">
  <metadata><?xpacket begin="﻿" id="W5M0MpCehiHzreSzNTczkc9d"?>
<x:xmpmeta xmlns:x="adobe:ns:meta/" x:xmptk="Adobe XMP Core 5.6-c138 79.159824, 2016/09/14-01:09:01        ">
   <rdf:RDF xmlns:rdf="http://www.w3.org/1999/02/22-rdf-syntax-ns#">
      <rdf:Description rdf:about=""/>
   </rdf:RDF>
</x:xmpmeta>
                                                                                                    
                                                                                                    
                                                                                                    
                                                                                                    
                                                                                                    
                                                                                                    
                                                                                                    
                                                                                                    
                                                                                                    
                                                                                                    
                                                                                                    
                                                                                                    
                                                                                                    
                                                                                                    
                                                                                                    
                                                                                                    
                                                                                                    
                                                                                                    
                                                                                                    
                                                                                                    
                           
<?xpacket end="w"?></metadata>
<defs>
    <style>
      .cls-1 {
        fill: #444453;
        fill-rule: evenodd;
      }
    </style>
  </defs>
  <path id="Burger_Menu_Icon" data-name="Burger Menu Icon" class="cls-1" d="M25,42.25A1.253,1.253,0,0,1,26.251,41h3.5a1.25,1.25,0,1,1,0,2.5h-3.5A1.247,1.247,0,0,1,25,42.25Zm0-5.75a1.251,1.251,0,0,1,1.251-1.25h8.5a1.25,1.25,0,1,1,0,2.5h-8.5A1.247,1.247,0,0,1,25,36.5Zm0-5.75a1.25,1.25,0,0,1,1.249-1.25h13.5a1.25,1.25,0,0,1,0,2.5h-13.5A1.246,1.246,0,0,1,25,30.75Z" transform="translate(-25 -29.5)"/>
</svg>
