<svg xmlns="http://www.w3.org/2000/svg" width="24.75" height="24.75" viewBox="0 0 24.75 24.75">
  <metadata><?xpacket begin="﻿" id="W5M0MpCehiHzreSzNTczkc9d"?>
<x:xmpmeta xmlns:x="adobe:ns:meta/" x:xmptk="Adobe XMP Core 5.6-c138 79.159824, 2016/09/14-01:09:01        ">
   <rdf:RDF xmlns:rdf="http://www.w3.org/1999/02/22-rdf-syntax-ns#">
      <rdf:Description rdf:about=""/>
   </rdf:RDF>
</x:xmpmeta>
                                                                                                    
                                                                                                    
                                                                                                    
                                                                                                    
                                                                                                    
                                                                                                    
                                                                                                    
                                                                                                    
                                                                                                    
                                                                                                    
                                                                                                    
                                                                                                    
                                                                                                    
                                                                                                    
                                                                                                    
                                                                                                    
                                                                                                    
                                                                                                    
                                                                                                    
                                                                                                    
                           
<?xpacket end="w"?></metadata>
<defs>
    <style>
      .cls-1 {
        fill: #444453;
        fill-rule: evenodd;
      }
    </style>
  </defs>
  <path id="Cart_Icon" data-name="Cart Icon" class="cls-1" d="M1844.83,97.664l3.09-9.284a1.549,1.549,0,0,0-.98-1.957,1.5,1.5,0,0,0-.49-0.061V86.344h-19.42l-0.78-2.091a1.548,1.548,0,1,0-2.9,1.087l4.64,12.378a1.548,1.548,0,0,0,1.45,1h13.92A1.545,1.545,0,0,0,1844.83,97.664Zm-14.32-2.037-2.32-6.189h16.12l-2.07,6.189h-11.73Zm0.47,9.284a3.09,3.09,0,1,1-3.09-3.094A3.091,3.091,0,0,1,1830.98,104.911Zm13.93,0a3.1,3.1,0,1,1-3.1-3.094A3.1,3.1,0,0,1,1844.91,104.911Z" transform="translate(-1823.25 -83.25)"/>
</svg>
